<?xml version="1.0" encoding="UTF-8" standalone="no"?>
<svg
   xmlns:dc="http://purl.org/dc/elements/1.1/"
   xmlns:cc="http://creativecommons.org/ns#"
   xmlns:rdf="http://www.w3.org/1999/02/22-rdf-syntax-ns#"
   xmlns:svg="http://www.w3.org/2000/svg"
   xmlns="http://www.w3.org/2000/svg"
   xmlns:sodipodi="http://sodipodi.sourceforge.net/DTD/sodipodi-0.dtd"
   xmlns:inkscape="http://www.inkscape.org/namespaces/inkscape"
   width="16"
   height="16"
   version="1.1"
   id="svg8"
   sodipodi:docname="autoscroll-symbolic.svg"
   inkscape:version="1.0.1 (3bc2e813f5, 2020-09-07)">
  <metadata
     id="metadata14">
    <rdf:RDF>
      <cc:Work
         rdf:about="">
        <dc:format>image/svg+xml</dc:format>
        <dc:type
           rdf:resource="http://purl.org/dc/dcmitype/StillImage" />
        <dc:title></dc:title>
      </cc:Work>
    </rdf:RDF>
  </metadata>
  <defs
     id="defs12" />
  <sodipodi:namedview
     pagecolor="#ffffff"
     bordercolor="#666666"
     borderopacity="1"
     objecttolerance="10"
     gridtolerance="10"
     guidetolerance="10"
     inkscape:pageopacity="0"
     inkscape:pageshadow="2"
     inkscape:window-width="2140"
     inkscape:window-height="1613"
     id="namedview10"
     showgrid="false"
     inkscape:zoom="63"
     inkscape:cx="8"
     inkscape:cy="8"
     inkscape:window-x="26"
     inkscape:window-y="23"
     inkscape:window-maximized="0"
     inkscape:current-layer="g6" />
  <g
     color="#000"
     fill="#2e3436"
     id="g6">
    <path
       d="m 8.9366939,1 v 7.563 l -1.281,-1.283 A 1.015,1.015 0 0 0 6.9366939,7 h -1 v 1 c 0,0.265 0.093,0.53 0.281,0.719 l 3,3 0.282,0.281 h 0.8750001 l 0.28,-0.281 3,-3 A 1.01,1.01 0 0 0 13.936694,8 V 7 h -1 c -0.265,0 -0.53,0.093 -0.719,0.281 l -1.281,1.282 V 1 Z"
       style="line-height:normal;-inkscape-font-specification:'Bitstream Vera Sans';text-indent:0;text-align:start;text-decoration:none;text-decoration-line:none;text-transform:none;marker:none"
       font-weight="400"
       font-family="'Bitstream Vera Sans'"
       overflow="visible"
       id="path2" />
    <path
       d="M1.994 13L2 15h12l-.006-2z"
       style="marker:none"
       overflow="visible"
       fill-rule="evenodd"
       id="path4" />
    <path
       d="M 1.994,9 2,11 h 3.1214658 l -0.006,-2 z"
       style="marker:none"
       overflow="visible"
       fill-rule="evenodd"
       id="path839"
       sodipodi:nodetypes="ccccc" />
    <path
       d="M 1.994,5 2,7 h 3.1214658 l -0.006,-2 z"
       style="marker:none"
       overflow="visible"
       fill-rule="evenodd"
       id="path841"
       sodipodi:nodetypes="ccccc" />
    <path
       d="M 1.994,1 2,3 h 3.1214658 l -0.006,-2 z"
       style="marker:none"
       overflow="visible"
       fill-rule="evenodd"
       id="path843"
       sodipodi:nodetypes="ccccc" />
  </g>
</svg>
