<?xml version="1.0" encoding="UTF-8" standalone="no"?>
<svg
   xmlns:dc="http://purl.org/dc/elements/1.1/"
   xmlns:cc="http://creativecommons.org/ns#"
   xmlns:rdf="http://www.w3.org/1999/02/22-rdf-syntax-ns#"
   xmlns:svg="http://www.w3.org/2000/svg"
   xmlns="http://www.w3.org/2000/svg"
   xmlns:sodipodi="http://sodipodi.sourceforge.net/DTD/sodipodi-0.dtd"
   xmlns:inkscape="http://www.inkscape.org/namespaces/inkscape"
   width="24"
   height="24"
   viewBox="0 0 24 24"
   version="1.1"
   id="svg4"
   sodipodi:docname="halt.svg"
   inkscape:version="1.0.1 (3bc2e813f5, 2020-09-07)">
  <metadata
     id="metadata10">
    <rdf:RDF>
      <cc:Work
         rdf:about="">
        <dc:format>image/svg+xml</dc:format>
        <dc:type
           rdf:resource="http://purl.org/dc/dcmitype/StillImage" />
      </cc:Work>
    </rdf:RDF>
  </metadata>
  <defs
     id="defs8" />
  <sodipodi:namedview
     pagecolor="#ffffff"
     bordercolor="#666666"
     borderopacity="1"
     objecttolerance="10"
     gridtolerance="10"
     guidetolerance="10"
     inkscape:pageopacity="0"
     inkscape:pageshadow="2"
     inkscape:window-width="1920"
     inkscape:window-height="1016"
     id="namedview6"
     showgrid="false"
     inkscape:zoom="33.083333"
     inkscape:cx="12"
     inkscape:cy="12"
     inkscape:window-x="0"
     inkscape:window-y="0"
     inkscape:window-maximized="1"
     inkscape:current-layer="svg4" />
  <path
     d="M20.825 12c-.228.59-3.052 6.998-3.772 8.614-.756 1.695-2.229 3.386-4.951 3.386h-4.729c-2.865 0-4.373-1.7-4.373-4.673v-12.975c0-1.721 2.37-1.633 2.37-.08v5.689c0 .468.858.465.858 0v-9.142c0-1.769 2.65-1.722 2.65 0v8.63c0 .476.797.456.797-.01v-10.128c0-1.722 2.624-1.773 2.624 0l.001 10.245c0 .459.826.469.826 0v-8.604c0-1.629 2.873-1.679 2.873 0v9.75c0 .597.587.692.811.236.212-.433 1.089-2.368 1.1-2.389.883-1.849 3.832-.726 2.915 1.451z"
     id="path2"
     style="fill:#474747;fill-opacity:1" />
</svg>
