<?xml version="1.0" encoding="UTF-8" standalone="no"?>
<svg
   xmlns:dc="http://purl.org/dc/elements/1.1/"
   xmlns:cc="http://creativecommons.org/ns#"
   xmlns:rdf="http://www.w3.org/1999/02/22-rdf-syntax-ns#"
   xmlns:svg="http://www.w3.org/2000/svg"
   xmlns="http://www.w3.org/2000/svg"
   xmlns:sodipodi="http://sodipodi.sourceforge.net/DTD/sodipodi-0.dtd"
   xmlns:inkscape="http://www.inkscape.org/namespaces/inkscape"
   width="16"
   height="16"
   viewBox="0 0 4.2333332 4.2333335"
   version="1.1"
   id="svg2827"
   inkscape:version="1.0.1 (3bc2e813f5, 2020-09-07)"
   sodipodi:docname="select-mode-automatic-symbolic.svg">
  <defs
     id="defs2821" />
  <sodipodi:namedview
     id="base"
     pagecolor="#ffffff"
     bordercolor="#666666"
     borderopacity="1.0"
     inkscape:pageopacity="0.0"
     inkscape:pageshadow="2"
     inkscape:zoom="11.2"
     inkscape:cx="-8.0887299"
     inkscape:cy="23.719275"
     inkscape:document-units="mm"
     inkscape:current-layer="layer1"
     inkscape:document-rotation="0"
     showgrid="false"
     units="px"
     inkscape:window-width="1530"
     inkscape:window-height="991"
     inkscape:window-x="26"
     inkscape:window-y="23"
     inkscape:window-maximized="0" />
  <metadata
     id="metadata2824">
    <rdf:RDF>
      <cc:Work
         rdf:about="">
        <dc:format>image/svg+xml</dc:format>
        <dc:type
           rdf:resource="http://purl.org/dc/dcmitype/StillImage" />
        <dc:title />
      </cc:Work>
    </rdf:RDF>
  </metadata>
  <g
     inkscape:label="Layer 1"
     inkscape:groupmode="layer"
     id="layer1">
    <g
       id="g1512"
       inkscape:label="org.gnome.Builder"
       transform="matrix(0.29264218,0,0,0.29264218,-0.26588111,34.747733)">
      <path
         style="color:#000000;clip-rule:nonzero;display:inline;overflow:visible;visibility:visible;opacity:1;isolation:auto;mix-blend-mode:normal;color-interpolation:sRGB;color-interpolation-filters:linearRGB;solid-color:#000000;solid-opacity:1;fill:#474747;fill-opacity:1;fill-rule:nonzero;stroke:none;stroke-width:1;stroke-linecap:butt;stroke-linejoin:miter;stroke-miterlimit:4;stroke-dasharray:none;stroke-dashoffset:0;stroke-opacity:1;marker:none;marker-start:none;marker-mid:none;marker-end:none;paint-order:normal;color-rendering:auto;image-rendering:auto;shape-rendering:auto;text-rendering:auto;enable-background:accumulate"
         sodipodi:nodetypes="ccccccccccc"
         id="rect27311"
         d="M 1.09047,-106.77903 2,-107 l 1.43279,-1.41828 c 0.35417,0.15628 1.61431,0.16764 1.96848,0 L 6.96664,-107 l 0.77551,0.22097 0.19887,0.23347 V -105 H 0.93579002 v -1.52346 z"
         inkscape:connector-curvature="0" />
      <path
         id="path27313"
         d="m 7.53479,-118.00977 a 1.5277282,1.5277282 0 0 0 -1.5273438,1.52735 1.5277282,1.5277282 0 0 0 0.1210938,0.59375 l -1.4980469,1.82226 a 2.5,2.5 0 0 0 -0.1894531,-0.01 2.5,2.5 0 0 0 -2.5,2.5 2.5,2.5 0 0 0 2.5,2.5 2.5,2.5 0 0 0 2.5,-2.5 2.5,2.5 0 0 0 -0.2929688,-1.17382 l 0.8769532,-2.20508 a 1.5277282,1.5277282 0 0 0 0.00977,0 1.5277282,1.5277282 0 0 0 1.3554644,-0.82617 l 1.9511722,0.44922 a 1.5277282,1.5277282 0 0 0 1.509765,1.30469 1.5277282,1.5277282 0 0 0 1.529297,-1.52735 1.5277282,1.5277282 0 0 0 -1.529297,-1.52734 1.5277282,1.5277282 0 0 0 -1.367187,0.85156 l -1.9414065,-0.49609 A 1.5277282,1.5277282 0 0 0 7.53479,-118.01 Z"
         style="color:#000000;clip-rule:nonzero;display:inline;overflow:visible;visibility:visible;opacity:1;isolation:auto;mix-blend-mode:normal;color-interpolation:sRGB;color-interpolation-filters:linearRGB;solid-color:#000000;solid-opacity:1;fill:#474747;fill-opacity:1;fill-rule:nonzero;stroke:none;stroke-width:1;stroke-linecap:butt;stroke-linejoin:miter;stroke-miterlimit:4;stroke-dasharray:none;stroke-dashoffset:0;stroke-opacity:1;marker:none;marker-start:none;marker-mid:none;marker-end:none;paint-order:normal;color-rendering:auto;image-rendering:auto;shape-rendering:auto;text-rendering:auto;enable-background:accumulate"
         inkscape:connector-curvature="0" />
      <path
         style="color:#000000;clip-rule:nonzero;display:inline;overflow:visible;visibility:visible;opacity:1;isolation:auto;mix-blend-mode:normal;color-interpolation:sRGB;color-interpolation-filters:linearRGB;solid-color:#000000;solid-opacity:1;fill:#474747;fill-opacity:1;fill-rule:nonzero;stroke:none;stroke-width:1;stroke-linecap:butt;stroke-linejoin:miter;stroke-miterlimit:4;stroke-dasharray:none;stroke-dashoffset:0;stroke-opacity:1;marker:none;marker-start:none;marker-mid:none;marker-end:none;paint-order:normal;color-rendering:auto;image-rendering:auto;shape-rendering:auto;text-rendering:auto;enable-background:accumulate"
         sodipodi:nodetypes="ccccccccccccccccc"
         id="path27321"
         d="m 10.94102,-112.00001 -1.06629,1.91069 0.77903,2.08931 h 0.53125 l -0.24399,-2.46875 1.21875,-0.1875 0.21496,1.69887 0.57544,-0.004 0.2096,-1.66383 0.9375,0.0937 0.0937,2.5 0.5625,0.0312 0.59375,-2.5625 -1.39553,-1.21875 v -1.22855 h -2.94822 z"
         inkscape:connector-curvature="0" />
    </g>
  </g>
</svg>
