<?xml version="1.0" encoding="UTF-8" standalone="no"?>
<!-- Created with Inkscape (http://www.inkscape.org/) -->

<svg
   width="16"
   height="16"
   viewBox="0 0 4.2333332 4.2333335"
   version="1.1"
   id="svg122"
   inkscape:version="1.1.2 (0a00cf5339, 2022-02-04)"
   sodipodi:docname="io.github.jgreitemann.mv-mqtt-client-symbolic.svg"
   xmlns:inkscape="http://www.inkscape.org/namespaces/inkscape"
   xmlns:sodipodi="http://sodipodi.sourceforge.net/DTD/sodipodi-0.dtd"
   xmlns="http://www.w3.org/2000/svg"
   xmlns:svg="http://www.w3.org/2000/svg">
  <sodipodi:namedview
     id="namedview124"
     pagecolor="#ffffff"
     bordercolor="#666666"
     borderopacity="1.0"
     inkscape:pageshadow="2"
     inkscape:pageopacity="0.0"
     inkscape:pagecheckerboard="0"
     inkscape:document-units="mm"
     showgrid="false"
     units="px"
     inkscape:zoom="10.24"
     inkscape:cx="24.951172"
     inkscape:cy="31.640625"
     inkscape:window-width="1920"
     inkscape:window-height="1011"
     inkscape:window-x="0"
     inkscape:window-y="0"
     inkscape:window-maximized="1"
     inkscape:current-layer="layer1" />
  <defs
     id="defs119" />
  <g
     inkscape:label="Layer 1"
     inkscape:groupmode="layer"
     id="layer1">
    <path
       id="circle15020"
       style="display:inline;mix-blend-mode:normal;fill:none;stroke:#000000;stroke-width:0.281419;enable-background:new"
       d="m 2.4085553,1.9083084 a 0.07170208,0.07170208 0 0 1 -0.0717,0.0717 0.07170208,0.07170208 0 0 1 -0.0717,-0.0717 0.07170208,0.07170208 0 0 1 0.0717,-0.0717 0.07170208,0.07170208 0 0 1 0.0717,0.0717 z m -0.49842,0 a 0.07170208,0.07170208 0 0 1 -0.0717,0.0717 0.07170208,0.07170208 0 0 1 -0.0717,-0.0717 0.07170208,0.07170208 0 0 1 0.0717,-0.0717 0.07170208,0.07170208 0 0 1 0.0717,0.0717 z m -0.5713,-0.11271 c 0,0 -0.50434997,-0.0967 -0.53662997,-0.21486 -0.0188,-0.069 0.31224997,-0.49681 0.70197997,-0.31645 0.40805,0.18884 0.52899,-0.0596 0.61205,-0.0581 0.0839,10e-4 0.21755,0.29614 0.61205,0.11032 0.39449,-0.1858 0.52786,0.0836 0.60915,0.31066 0.0813,0.227 -0.26067,0.20161 -0.47552,0.20823 m -0.13943,-0.47242 c 0.0986,0.20613 0.11362,0.27316 0.1447,0.51248 0.0538,0.41422 -0.20014,0.53936 -0.31004,0.77658 -0.12232,0.26402 -0.0348,0.55453 -0.45832,0.56033 -0.38707,0.005 -0.22625,-0.28742 -0.4148,-0.52549 -0.18855,-0.23807 -0.44091,-0.48776 -0.34519,-0.89131 0.0957,-0.40356 0.13344,-0.45872 0.13344,-0.45872 m 0.37795,-0.68277002 c -0.0672,0.01 -0.41847,-0.40077 -0.69054,-0.22736 -0.24590997,0.15674 -0.22479997,0.46299 -0.26605997,0.51139 -0.0414,0.0485 -0.51963,-0.0234 -0.6337,0.26033002 -0.13378,0.33276 0.30827,0.64744 0.29893,0.7287 -0.008,0.0686 -0.20776,0.29122 -0.16931,0.50105 0.0546,0.29791 0.46709,0.19523 0.50402,0.27405 0.0311,0.0664 -0.2048,0.42395 0.0357,0.71389 0.18783997,0.22644 0.53256997,0.0706 0.60213997,0.1164 0.0484,0.0319 0.14218,0.39759 0.36646,0.42782 0.18827,0.0254 0.33807,-0.21811 0.40436,-0.23315 0.0712,-0.0162 0.41659,0.20826 0.60784,0.0535 0.23787,-0.19249 0.0795,-0.58036 0.11918,-0.62507 0.0461,-0.0519 0.37737,0.0295 0.53448,-0.25876 0.14771,-0.27099 -0.1549,-0.54295 -0.14732,-0.5977 0.008,-0.0583 0.60559,-0.0901 0.58142,-0.44295 -0.0329,-0.48114 -0.40422,-0.4802 -0.43248,-0.53517 -0.0291,-0.0566 0.18344,-0.39399002 -0.0682,-0.64523002 -0.25559,-0.2552 -0.67098,0.0843 -0.70889,0.0582 -0.0724,-0.0498 -0.14132,-0.43004 -0.4399,-0.4613 -0.29858,-0.0312 -0.39396,0.31037 -0.49816,0.38133 z" />
  </g>
</svg>
