<?xml version="1.0" encoding="UTF-8"?>
<svg height="128px" viewBox="0 0 128 128" width="128px" xmlns="http://www.w3.org/2000/svg" xmlns:xlink="http://www.w3.org/1999/xlink">
    <linearGradient id="a" gradientUnits="userSpaceOnUse" x1="12.000311" x2="116.000303" y1="104.000274" y2="104.000274">
        <stop offset="0" stop-color="#613583"/>
        <stop offset="0.0384615" stop-color="#c061cb"/>
        <stop offset="0.0769231" stop-color="#613583"/>
        <stop offset="0.923077" stop-color="#613583"/>
        <stop offset="0.961538" stop-color="#c061cb"/>
        <stop offset="1" stop-color="#613583"/>
    </linearGradient>
    <clipPath id="b">
        <path d="m 12 12 h 104 v 96 h -104 z m 0 0"/>
    </clipPath>
    <clipPath id="c">
        <path d="m 20 12 h 88 c 4.417969 0 8 3.582031 8 8 v 80 c 0 4.417969 -3.582031 8 -8 8 h -88 c -4.417969 0 -8 -3.582031 -8 -8 v -80 c 0 -4.417969 3.582031 -8 8 -8 z m 0 0"/>
    </clipPath>
    <clipPath id="d">
        <path d="m 12 12 h 104 v 96 h -104 z m 0 0"/>
    </clipPath>
    <clipPath id="e">
        <path d="m 20 12 h 88 c 4.417969 0 8 3.582031 8 8 v 80 c 0 4.417969 -3.582031 8 -8 8 h -88 c -4.417969 0 -8 -3.582031 -8 -8 v -80 c 0 -4.417969 3.582031 -8 8 -8 z m 0 0"/>
    </clipPath>
    <clipPath id="f">
        <rect height="128" width="128"/>
    </clipPath>
    <clipPath id="g">
        <rect height="128" width="128"/>
    </clipPath>
    <filter id="h" height="100%" width="100%" x="0%" y="0%">
        <feColorMatrix in="SourceGraphic" type="matrix" values="0 0 0 0 1 0 0 0 0 1 0 0 0 0 1 0 0 0 1 0"/>
    </filter>
    <mask id="i">
        <g clip-path="url(#g)" filter="url(#h)">
            <g clip-path="url(#f)">
                <path d="m 20 32 h 88 c 4.417969 0 8 3.582031 8 8 v 68 c 0 4.417969 -3.582031 8 -8 8 h -88 c -4.417969 0 -8 -3.582031 -8 -8 v -68 c 0 -4.417969 3.582031 -8 8 -8 z m 0 0" fill="url(#a)"/>
                <path d="m 20 12 h 88 c 4.417969 0 8 3.582031 8 8 v 80 c 0 4.417969 -3.582031 8 -8 8 h -88 c -4.417969 0 -8 -3.582031 -8 -8 v -80 c 0 -4.417969 3.582031 -8 8 -8 z m 0 0" fill="#a347ba"/>
                <g clip-path="url(#d)">
                    <g clip-path="url(#e)">
                        <path d="m 12 43 h -6 v 12 h 6 c 34.148438 0 61 24.097656 61 53 h 12 c 0 -36.265625 -33.140625 -65 -73 -65 z m 0 -23 h -6 v 12 h 6 c 46.75 0 84 34.273438 84 76 h 12 c 0 -48.847656 -43.339844 -88 -96 -88 z m 0 -23 v 12 c 59.394531 0 107 44.5 107 99 h 12 c 0 -61.480469 -53.578125 -111 -119 -111 z m 0 0" fill="#ffffff"/>
                    </g>
                </g>
                <path d="m 38.011719 72.542969 c -9.179688 0.011719 -17.191407 6.234375 -19.472657 15.125 c 2.300782 8.871093 10.304688 15.070312 19.472657 15.074219 c 9.179687 -0.011719 17.1875 -6.230469 19.472656 -15.121094 c -2.300781 -8.875 -10.308594 -15.070313 -19.472656 -15.078125 z m 0 5.035156 c 5.558593 0 10.066406 4.507813 10.066406 10.066406 c 0 5.558594 -4.507813 10.066407 -10.066406 10.066407 c -5.558594 0 -10.066407 -4.507813 -10.066407 -10.066407 c 0 -5.558593 4.507813 -10.066406 10.066407 -10.066406 z m 0 0" fill="#ffffff"/>
                <path d="m 43.042969 87.644531 c 0 2.777344 -2.253907 5.03125 -5.03125 5.03125 c -2.78125 0 -5.035157 -2.253906 -5.035157 -5.03125 c 0 -2.78125 2.253907 -5.035156 5.035157 -5.035156 c 2.777343 0 5.03125 2.253906 5.03125 5.035156 z m 0 0" fill="#ffffff"/>
                <path d="m 73 108 h 12 v 8 h -12 z m 0 0" fill="#999999"/>
                <path d="m 96 108 h 12 v 8 h -12 z m 0 0" fill="#999999"/>
            </g>
        </g>
    </mask>
    <mask id="j">
        <g filter="url(#h)">
            <rect fill-opacity="0.8" height="128" width="128"/>
        </g>
    </mask>
    <linearGradient id="k" gradientTransform="matrix(0 0.37 -0.98462 0 295.38501 -30.360001)" gradientUnits="userSpaceOnUse" x1="300" x2="428" y1="235" y2="235">
        <stop offset="0" stop-color="#f9f06b"/>
        <stop offset="1" stop-color="#f5c211"/>
    </linearGradient>
    <clipPath id="l">
        <rect height="128" width="128"/>
    </clipPath>
    <clipPath id="m">
        <rect height="128" width="128"/>
    </clipPath>
    <path d="m 20 32 h 88 c 4.417969 0 8 3.582031 8 8 v 68 c 0 4.417969 -3.582031 8 -8 8 h -88 c -4.417969 0 -8 -3.582031 -8 -8 v -68 c 0 -4.417969 3.582031 -8 8 -8 z m 0 0" fill="url(#a)"/>
    <path d="m 20 12 h 88 c 4.417969 0 8 3.582031 8 8 v 80 c 0 4.417969 -3.582031 8 -8 8 h -88 c -4.417969 0 -8 -3.582031 -8 -8 v -80 c 0 -4.417969 3.582031 -8 8 -8 z m 0 0" fill="#a347ba"/>
    <g clip-path="url(#b)">
        <g clip-path="url(#c)">
            <path d="m 12 43 h -6 v 12 h 6 c 34.148438 0 61 24.097656 61 53 h 12 c 0 -36.265625 -33.140625 -65 -73 -65 z m 0 -23 h -6 v 12 h 6 c 46.75 0 84 34.273438 84 76 h 12 c 0 -48.847656 -43.339844 -88 -96 -88 z m 0 -23 v 12 c 59.394531 0 107 44.5 107 99 h 12 c 0 -61.480469 -53.578125 -111 -119 -111 z m 0 0" fill="#ffffff"/>
        </g>
    </g>
    <path d="m 38.011719 72.542969 c -9.179688 0.011719 -17.191407 6.234375 -19.472657 15.125 c 2.300782 8.871093 10.304688 15.070312 19.472657 15.074219 c 9.179687 -0.011719 17.1875 -6.230469 19.472656 -15.121094 c -2.300781 -8.875 -10.308594 -15.070313 -19.472656 -15.078125 z m 0 5.035156 c 5.558593 0 10.066406 4.507813 10.066406 10.066406 c 0 5.558594 -4.507813 10.066407 -10.066406 10.066407 c -5.558594 0 -10.066407 -4.507813 -10.066407 -10.066407 c 0 -5.558593 4.507813 -10.066406 10.066407 -10.066406 z m 0 0" fill="#ffffff"/>
    <path d="m 43.042969 87.644531 c 0 2.777344 -2.253907 5.03125 -5.03125 5.03125 c -2.78125 0 -5.035157 -2.253906 -5.035157 -5.03125 c 0 -2.78125 2.253907 -5.035156 5.035157 -5.035156 c 2.777343 0 5.03125 2.253906 5.03125 5.035156 z m 0 0" fill="#ffffff"/>
    <path d="m 73 108 h 12 v 8 h -12 z m 0 0" fill="#999999"/>
    <path d="m 96 108 h 12 v 8 h -12 z m 0 0" fill="#999999"/>
    <g clip-path="url(#m)" mask="url(#i)">
        <g clip-path="url(#l)" mask="url(#j)">
            <path d="m 128 80.640625 v 47.359375 h -128 v -47.359375 z m 0 0" fill="url(#k)"/>
            <path d="m 13.308594 80.640625 l 47.355468 47.359375 h 21.214844 l -47.359375 -47.359375 z m 42.421875 0 l 47.363281 47.359375 h 21.214844 l -47.363282 -47.359375 z m 42.429687 0 l 29.839844 29.839844 v -21.210938 l -8.628906 -8.628906 z m -98.160156 7.90625 v 21.214844 l 18.238281 18.238281 h 21.214844 z m 0 0"/>
        </g>
    </g>
</svg>
